<?xml version="1.0" standalone="no"?>
<!DOCTYPE svg PUBLIC "-//W3C//DTD SVG 20010904//EN"
 "http://www.w3.org/TR/2001/REC-SVG-20010904/DTD/svg10.dtd">
<svg version="1.0" xmlns="http://www.w3.org/2000/svg"
 width="500.000000pt" height="500.000000pt" viewBox="0 0 500.000000 500.000000"
 preserveAspectRatio="xMidYMid meet">

<g transform="translate(0.000000,500.000000) scale(0.100000,-0.100000)"
fill="#000000" stroke="none">
<path d="M1180 3961 c-48 -15 -87 -40 -120 -77 -67 -76 -62 20 -62 -1384 0
-1427 -7 -1311 73 -1391 80 -80 -36 -74 1364 -75 688 -1 1285 1 1328 4 73 5
83 8 137 47 39 30 65 58 81 91 l24 49 -2 1272 c-2 1130 -4 1276 -18 1309 -24
58 -61 101 -113 131 l-47 28 -1310 2 c-720 1 -1321 -2 -1335 -6z m690 -576 l0
-115 -32 -1 c-18 -1 -37 -1 -41 0 -15 3 -75 -39 -83 -57 -4 -9 -10 -134 -13
-277 l-6 -260 -29 -53 c-16 -29 -48 -70 -70 -90 l-41 -38 43 -44 c24 -24 55
-66 70 -94 26 -50 27 -54 32 -303 l5 -253 32 -31 c24 -25 42 -33 82 -37 l51
-5 0 -115 0 -115 -77 6 c-150 10 -248 84 -301 225 -16 41 -19 83 -21 277 -3
268 5 247 -125 361 l-81 70 -3 58 c-4 69 -1 73 110 158 43 32 82 66 87 76 5 9
11 130 13 267 4 243 4 251 29 305 59 125 174 197 317 199 l52 1 0 -115z m1523
81 c64 -31 130 -98 160 -164 20 -43 22 -68 27 -303 6 -295 -5 -262 121 -360
79 -61 99 -90 99 -139 0 -48 -18 -74 -97 -141 -124 -106 -117 -85 -123 -369
-5 -244 -5 -245 -33 -302 -18 -37 -47 -73 -80 -101 -73 -61 -124 -81 -210 -81
-62 -1 -72 1 -71 17 1 9 2 60 3 112 l1 95 30 0 c38 0 90 21 110 45 12 15 16
65 20 264 l5 246 32 65 c18 36 50 83 72 104 l41 40 -46 44 c-25 24 -58 69 -72
100 -26 56 -27 62 -32 307 -4 177 -9 257 -18 272 -17 30 -63 53 -107 53 l-35
0 0 116 0 117 74 -6 c49 -3 92 -14 129 -31z m-593 -340 c47 -8 103 -22 125
-32 131 -61 225 -188 225 -306 l0 -38 -113 0 -114 0 -11 39 c-28 92 -92 130
-220 131 -86 0 -125 -12 -169 -53 -18 -16 -23 -31 -23 -73 0 -48 3 -55 37 -83
37 -30 86 -47 263 -91 108 -27 229 -73 278 -105 79 -54 117 -149 110 -283 -5
-99 -18 -131 -88 -205 -84 -90 -187 -127 -357 -127 -202 0 -328 42 -413 138
-53 60 -90 147 -90 214 l0 38 120 0 c99 0 120 -3 120 -15 0 -8 7 -33 16 -55
43 -108 246 -155 375 -87 96 51 105 171 17 225 -33 20 -76 33 -248 73 -197 46
-303 109 -347 207 -22 46 -26 70 -26 147 -1 81 3 99 27 148 49 100 145 167
276 192 88 17 130 17 230 1z m-612 -608 l-3 -583 -120 1 -120 0 -3 570 c-1
313 0 575 3 582 3 9 38 12 125 12 l120 0 -2 -582z"/>
</g>
</svg>
