<svg xmlns="http://www.w3.org/2000/svg" enable-background="new 0 0 595.6 169" width="100" height="100" viewBox="0 0 595.6 169" id="godaddy">
  <path d="
	M136.9,34.8c-12.8-8-29.6-6.1-44.6,3.3c-15-9.4-31.8-11.3-44.6-3.3C27.5,47.4,25,79.9,42.2,107.4c12.7,20.3,32.5,32.1,50.1,31.9
	c17.6,0.2,37.4-11.7,50.1-31.9C159.5,79.9,157.1,47.4,136.9,34.8L136.9,34.8z M51.5,101.6C48,96,45.3,89.8,43.6,83.4
	c-1.5-5.6-2.1-11.3-1.7-17.1c0.8-10.2,4.9-18.1,11.6-22.3c6.7-4.2,15.6-4.5,25.1-0.7c1.4,0.6,2.8,1.2,4.2,2
	c-5.3,4.8-9.9,10.3-13.6,16.4c-10.4,16.7-13.6,35.3-10,50.1C56.3,108.6,53.8,105.2,51.5,101.6z M141,83.4
	c-1.7,6.4-4.4,12.5-7.9,18.1c-2.3,3.6-4.9,7-7.8,10.2c3.3-13.3,1-29.5-6.9-44.8c-0.3-0.5-0.7-0.9-1.3-1c-0.5-0.1-1.1-0.1-1.6,0.2
	L90.6,81.7c-0.5,0.3-0.8,0.7-0.9,1.3s0,1.1,0.3,1.5l3.6,5.8c0.3,0.5,0.7,0.8,1.3,0.9c0.5,0.1,1.1,0,1.5-0.3l16.1-10.1
	c0.5,1.6,1,3.1,1.4,4.7c1.5,5.6,2.1,11.3,1.7,17.1c-0.8,10.2-4.9,18.1-11.6,22.3c-3.5,2.1-7.5,3.3-11.5,3.3c-0.1,0-0.2,0-0.3,0H92
	c-4.1-0.1-8.1-1.2-11.5-3.3c-6.7-4.2-10.9-12.1-11.6-22.3c-0.4-5.8,0.2-11.5,1.7-17.1c3.5-12.9,10.7-24.4,20.8-33.2
	c4.3-3.8,9.3-6.9,14.6-9c9.5-3.8,18.4-3.5,25.1,0.7c6.7,4.2,10.9,12.1,11.6,22.3C143.1,72.1,142.5,77.8,141,83.4L141,83.4z
	 M269.4,71.3c-13.1,0-23.6,10.2-23.6,23.2c0,12.9,10.6,22.9,23.6,22.9c13.2,0,23.7-10,23.7-22.9C293.1,81.5,282.6,71.3,269.4,71.3
	L269.4,71.3z M269.4,105.3c-6,0-10.6-4.9-10.6-10.9c0-6,4.6-11,10.6-11c6.1,0,10.7,5,10.7,11S275.5,105.3,269.4,105.3L269.4,105.3z
	 M322.6,53.5h-24.1c-0.5,0-1,0.2-1.4,0.6c-0.4,0.4-0.6,0.9-0.6,1.4v58.7c0,0.5,0.2,1.1,0.5,1.5s0.9,0.6,1.4,0.6h24.1
	c19.3,0,32.6-12.8,32.6-31.4C355.3,66,341.9,53.5,322.6,53.5L322.6,53.5z M323.2,103.8H310v-38h13.2c10.7,0,18,8,18,18.9
	C341.2,95.5,333.9,103.8,323.2,103.8L323.2,103.8z M403.2,72.5h-9c-1,0.1-1.8,0.9-1.9,2v2.7c-2.1-3.4-6.7-5.9-12.5-5.9
	c-11.3,0-21.9,8.9-21.9,23c0,14.1,10.5,23.1,21.8,23.1c5.8,0,10.6-2.5,12.6-5.9v2.8c0,1,0.8,1.9,1.9,1.9h9c0.5,0,1-0.2,1.3-0.5
	c0.4-0.4,0.6-0.8,0.5-1.3V74.5c0-0.5-0.2-1-0.5-1.4C404.2,72.8,403.7,72.5,403.2,72.5L403.2,72.5z M382.1,105.4
	c-6,0-10.5-4.6-10.5-11c0-6.4,4.5-11,10.5-11c6,0,10.5,4.6,10.5,11C392.6,100.8,388.1,105.4,382.1,105.4L382.1,105.4z M453.9,53.5
	h-9c-0.5,0-1,0.2-1.4,0.5c-0.4,0.4-0.6,0.8-0.6,1.4V77c-2.1-3.2-6.8-5.7-12.7-5.7c-11.2,0-21.6,8.9-21.6,23
	c0,14.1,10.5,23.1,21.8,23.1c5.8,0,10.2-2.5,12.6-5.9v2.8c0,1,0.8,1.9,1.9,1.9h9c0.5,0,1-0.2,1.3-0.5c0.4-0.4,0.6-0.8,0.5-1.3V55.4
	c0-0.5-0.2-1-0.5-1.4S454.4,53.5,453.9,53.5L453.9,53.5z M432.9,105.5c-6,0-10.4-4.7-10.4-11.1s4.5-11.1,10.4-11.1
	s10.4,4.7,10.4,11.1S438.9,105.5,432.9,105.5z M504.7,53.5h-9c-0.5,0-1,0.2-1.4,0.5c-0.4,0.4-0.6,0.8-0.6,1.4V77
	c-2.1-3.2-6.8-5.7-12.7-5.7c-11.2,0-21.6,8.9-21.6,23c0,14.1,10.5,23.1,21.8,23.1c5.8,0,10.2-2.5,12.6-5.9v2.8c0,1,0.8,1.9,1.9,1.9
	h9c0.5,0,1-0.2,1.3-0.5c0.4-0.4,0.5-0.8,0.5-1.3V55.4c0-0.5-0.2-1-0.5-1.4C505.7,53.7,505.2,53.5,504.7,53.5L504.7,53.5z
	 M483.7,105.5c-6,0-10.4-4.7-10.4-11.1s4.5-11.1,10.4-11.1c5.9,0,10.4,4.7,10.4,11.1S489.6,105.5,483.7,105.5L483.7,105.5z
	 M554.2,75.6l-13.5,46.3c-2.6,8.2-8.4,13.2-17.5,13.2c-4.1,0-7.9-0.8-10.8-2.5c-1.7-1-3.1-1.9-3.1-3.3c0-0.9,0.3-1.3,0.8-2.2l2.7-4
	c0.8-1.1,1.3-1.5,2.1-1.5c0.6,0,1.3,0.2,1.8,0.6c1.7,1.1,3.2,2,5.6,2c2.8,0,4.9-0.9,6.1-4.2l1.2-3.8h-5.5c-1.3,0-2.1-0.8-2.4-1.9
	l-12.1-38.7c-0.4-1.5,0-3,2.2-3h9.5c1.2,0,2,0.4,2.5,2.1l8.9,31.2l8.3-31.2c0.3-1.1,1-2.1,2.4-2.1h9
	C554.3,72.5,554.9,73.8,554.2,75.6L554.2,75.6z M242.3,89.4v24.7c0,0.5-0.2,1.1-0.6,1.5c-0.4,0.4-0.9,0.6-1.5,0.6h-7.5
	c-0.5,0-1.1-0.2-1.5-0.6c-0.4-0.4-0.6-0.9-0.6-1.5v-6.5c-4.7,6-13,9.8-22.3,9.8c-17.5,0-31.2-13.2-31.2-31.9
	c0-19.5,14.8-32.9,33.4-32.9c13.8,0,24.8,5.9,29.7,17.8c0.1,0.3,0.2,0.7,0.2,1c0,0.6-0.4,1-1.6,1.4l-8.7,3.4c-0.5,0.2-1.1,0.2-1.6,0
	c-0.5-0.3-0.8-0.7-1-1.2c-3.1-5.9-8.7-10-17.3-10c-11.1,0-19.1,8.7-19.1,19.9c0,10.9,6.8,19.9,19.4,19.9c6.6,0,11.9-3.1,14.4-6.6
	h-7.9c-0.5,0-1.1-0.2-1.5-0.6c-0.4-0.4-0.6-0.9-0.6-1.5v-6.7c0-0.5,0.2-1.1,0.6-1.5c0.4-0.4,0.9-0.6,1.5-0.6h23.1
	c0.5,0,1.1,0.2,1.4,0.5C242.1,88.3,242.3,88.8,242.3,89.4L242.3,89.4z M554.5,63.4v-0.6c0,0,0-0.1,0-0.1c0,0,0.1,0,0.1,0h3.8
	c0,0,0.1,0,0.1,0c0,0,0,0.1,0,0.1v0.6c0,0,0,0.1,0,0.1c0,0-0.1,0-0.1,0h-1.4v3.8c0,0.1-0.1,0.2-0.2,0.2h-0.7c0,0-0.1,0-0.1,0
	c0,0,0-0.1,0-0.1v-3.8h-1.4c0,0-0.1,0-0.1,0C554.5,63.5,554.5,63.4,554.5,63.4L554.5,63.4z M561.2,62.8l1,2.4l1-2.4
	c0,0,0-0.1,0.1-0.1c0,0,0.1,0,0.1,0h1.2c0,0,0.1,0,0.1,0c0,0,0,0.1,0,0.1v4.5c0,0,0,0.1,0,0.1c0,0-0.1,0-0.1,0H564c0,0-0.1,0-0.1,0
	c0,0,0-0.1,0-0.1v-3.4l-1.1,2.5c0,0,0,0.1-0.1,0.1c0,0-0.1,0-0.1,0H562c0,0-0.1,0-0.1,0c0,0-0.1-0.1-0.1-0.1l-1.1-2.5v3.4
	c0,0,0,0.1,0,0.1c0,0-0.1,0-0.1,0h-0.7c0,0-0.1,0-0.1,0c0,0,0-0.1,0-0.1v-4.5c0,0,0-0.1,0-0.1c0,0,0.1,0,0.1,0h1.2c0,0,0.1,0,0.1,0
	C561.1,62.7,561.1,62.7,561.2,62.8L561.2,62.8z"></path>
</svg>
