<svg enable-background="new 0 0 595.6 169" height="100" viewBox="0 0 595.6 169" width="100" xmlns="http://www.w3.org/2000/svg"><path d="m136.9 34.8c-12.8-8-29.6-6.1-44.6 3.3-15-9.4-31.8-11.3-44.6-3.3-20.2 12.6-22.7 45.1-5.5 72.6 12.7 20.3 32.5 32.1 50.1 31.9 17.6.2 37.4-11.7 50.1-31.9 17.1-27.5 14.7-60-5.5-72.6zm-85.4 66.8c-3.5-5.6-6.2-11.8-7.9-18.2-1.5-5.6-2.1-11.3-1.7-17.1.8-10.2 4.9-18.1 11.6-22.3s15.6-4.5 25.1-.7c1.4.6 2.8 1.2 4.2 2-5.3 4.8-9.9 10.3-13.6 16.4-10.4 16.7-13.6 35.3-10 50.1-2.9-3.2-5.4-6.6-7.7-10.2zm89.5-18.2c-1.7 6.4-4.4 12.5-7.9 18.1-2.3 3.6-4.9 7-7.8 10.2 3.3-13.3 1-29.5-6.9-44.8-.3-.5-.7-.9-1.3-1-.5-.1-1.1-.1-1.6.2l-24.9 15.6c-.5.3-.8.7-.9 1.3s0 1.1.3 1.5l3.6 5.8c.3.5.7.8 1.3.9.5.1 1.1 0 1.5-.3l16.1-10.1c.5 1.6 1 3.1 1.4 4.7 1.5 5.6 2.1 11.3 1.7 17.1-.8 10.2-4.9 18.1-11.6 22.3-3.5 2.1-7.5 3.3-11.5 3.3-.1 0-.2 0-.3 0h-.2c-4.1-.1-8.1-1.2-11.5-3.3-6.7-4.2-10.9-12.1-11.6-22.3-.4-5.8.2-11.5 1.7-17.1 3.5-12.9 10.7-24.4 20.8-33.2 4.3-3.8 9.3-6.9 14.6-9 9.5-3.8 18.4-3.5 25.1.7s10.9 12.1 11.6 22.3c.4 5.8-.2 11.5-1.7 17.1zm128.4-12.1c-13.1 0-23.6 10.2-23.6 23.2 0 12.9 10.6 22.9 23.6 22.9 13.2 0 23.7-10 23.7-22.9 0-13-10.5-23.2-23.7-23.2zm0 34c-6 0-10.6-4.9-10.6-10.9s4.6-11 10.6-11c6.1 0 10.7 5 10.7 11s-4.6 10.9-10.7 10.9zm53.2-51.8h-24.1c-.5 0-1 .2-1.4.6s-.6.9-.6 1.4v58.7c0 .5.2 1.1.5 1.5s.9.6 1.4.6h24.1c19.3 0 32.6-12.8 32.6-31.4.2-18.9-13.2-31.4-32.5-31.4zm.6 50.3h-13.2v-38h13.2c10.7 0 18 8 18 18.9 0 10.8-7.3 19.1-18 19.1zm80-31.3h-9c-1 .1-1.8.9-1.9 2v2.7c-2.1-3.4-6.7-5.9-12.5-5.9-11.3 0-21.9 8.9-21.9 23s10.5 23.1 21.8 23.1c5.8 0 10.6-2.5 12.6-5.9v2.8c0 1 .8 1.9 1.9 1.9h9c.5 0 1-.2 1.3-.5.4-.4.6-.8.5-1.3v-39.9c0-.5-.2-1-.5-1.4-.3-.3-.8-.6-1.3-.6zm-21.1 32.9c-6 0-10.5-4.6-10.5-11s4.5-11 10.5-11 10.5 4.6 10.5 11-4.5 11-10.5 11zm71.8-51.9h-9c-.5 0-1 .2-1.4.5-.4.4-.6.8-.6 1.4v21.6c-2.1-3.2-6.8-5.7-12.7-5.7-11.2 0-21.6 8.9-21.6 23s10.5 23.1 21.8 23.1c5.8 0 10.2-2.5 12.6-5.9v2.8c0 1 .8 1.9 1.9 1.9h9c.5 0 1-.2 1.3-.5.4-.4.6-.8.5-1.3v-59c0-.5-.2-1-.5-1.4s-.8-.5-1.3-.5zm-21 52c-6 0-10.4-4.7-10.4-11.1s4.5-11.1 10.4-11.1 10.4 4.7 10.4 11.1-4.4 11.1-10.4 11.1zm71.8-52h-9c-.5 0-1 .2-1.4.5-.4.4-.6.8-.6 1.4v21.6c-2.1-3.2-6.8-5.7-12.7-5.7-11.2 0-21.6 8.9-21.6 23s10.5 23.1 21.8 23.1c5.8 0 10.2-2.5 12.6-5.9v2.8c0 1 .8 1.9 1.9 1.9h9c.5 0 1-.2 1.3-.5.4-.4.5-.8.5-1.3v-59c0-.5-.2-1-.5-1.4-.3-.3-.8-.5-1.3-.5zm-21 52c-6 0-10.4-4.7-10.4-11.1s4.5-11.1 10.4-11.1 10.4 4.7 10.4 11.1-4.5 11.1-10.4 11.1zm70.5-29.9-13.5 46.3c-2.6 8.2-8.4 13.2-17.5 13.2-4.1 0-7.9-.8-10.8-2.5-1.7-1-3.1-1.9-3.1-3.3 0-.9.3-1.3.8-2.2l2.7-4c.8-1.1 1.3-1.5 2.1-1.5.6 0 1.3.2 1.8.6 1.7 1.1 3.2 2 5.6 2 2.8 0 4.9-.9 6.1-4.2l1.2-3.8h-5.5c-1.3 0-2.1-.8-2.4-1.9l-12.1-38.7c-.4-1.5 0-3 2.2-3h9.5c1.2 0 2 .4 2.5 2.1l8.9 31.2 8.3-31.2c.3-1.1 1-2.1 2.4-2.1h9c1.9-.1 2.5 1.2 1.8 3zm-311.9 13.8v24.7c0 .5-.2 1.1-.6 1.5s-.9.6-1.5.6h-7.5c-.5 0-1.1-.2-1.5-.6s-.6-.9-.6-1.5v-6.5c-4.7 6-13 9.8-22.3 9.8-17.5 0-31.2-13.2-31.2-31.9 0-19.5 14.8-32.9 33.4-32.9 13.8 0 24.8 5.9 29.7 17.8.1.3.2.7.2 1 0 .6-.4 1-1.6 1.4l-8.7 3.4c-.5.2-1.1.2-1.6 0-.5-.3-.8-.7-1-1.2-3.1-5.9-8.7-10-17.3-10-11.1 0-19.1 8.7-19.1 19.9 0 10.9 6.8 19.9 19.4 19.9 6.6 0 11.9-3.1 14.4-6.6h-7.9c-.5 0-1.1-.2-1.5-.6s-.6-.9-.6-1.5v-6.7c0-.5.2-1.1.6-1.5s.9-.6 1.5-.6h23.1c.5 0 1.1.2 1.4.5.6.5.8 1 .8 1.6zm312.2-26v-.6-.1h.1 3.8.1v.1.6.1h-.1-1.4v3.8c0 .1-.1.2-.2.2h-.7-.1v-.1-3.8h-1.4-.1c0-.1 0-.2 0-.2zm6.7-.6 1 2.4 1-2.4s0-.1.1-.1h.1 1.2.1v.1 4.5.1h-.1-.6-.1v-.1-3.4l-1.1 2.5s0 .1-.1.1h-.1-.6-.1s-.1-.1-.1-.1l-1.1-2.5v3.4.1h-.1-.7-.1v-.1-4.5-.1h.1 1.2.1c-.1-0-.1-0 0 .1z"/></svg>