<svg height="100" preserveAspectRatio="xMidYMid" viewBox="0 0 256 292" width="100" xmlns="http://www.w3.org/2000/svg"><path d="m223.774 57.34c-.201-1.46-1.48-2.268-2.537-2.357-1.055-.088-23.383-1.743-23.383-1.743s-15.507-15.395-17.209-17.099c-1.703-1.703-5.029-1.185-6.32-.805-.19.056-3.388 1.043-8.678 2.68-5.18-14.906-14.322-28.604-30.405-28.604-.444 0-.901.018-1.358.044-4.574-6.049-10.24-8.677-15.134-8.677-37.465 0-55.364 46.835-60.976 70.635-14.558 4.511-24.9 7.718-26.221 8.133-8.126 2.549-8.383 2.805-9.45 10.462-.803 5.797-22.065 170.226-22.065 170.226l165.678 31.042 89.77-19.42s-31.513-213.057-31.711-214.517zm-67.284-16.492-14.019 4.339c.005-.988.01-1.96.01-3.023 0-9.264-1.286-16.723-3.349-22.636 8.287 1.04 13.806 10.469 17.358 21.32zm-27.638-19.483c2.304 5.773 3.802 14.058 3.802 25.238 0 .572-.005 1.095-.01 1.624-9.117 2.824-19.024 5.89-28.953 8.966 5.575-21.516 16.025-31.908 25.161-35.828zm-11.131-10.537c1.617 0 3.246.549 4.805 1.622-12.007 5.65-24.877 19.88-30.312 48.297l-22.886 7.088c6.366-21.675 21.482-57.007 48.392-57.007z" fill="#95bf46"/><path d="m221.237 54.983c-1.055-.088-23.383-1.743-23.383-1.743s-15.507-15.395-17.209-17.099c-.637-.634-1.496-.959-2.394-1.099l-12.527 256.233 89.762-19.418s-31.514-213.057-31.712-214.517c-.201-1.46-1.48-2.268-2.537-2.357" fill="#5e8e3e"/><path d="m135.242 104.585-11.069 32.926s-9.698-5.176-21.586-5.176c-17.428 0-18.305 10.937-18.305 13.693 0 15.038 39.2 20.8 39.2 56.024 0 27.713-17.577 45.558-41.277 45.558-28.44 0-42.984-17.7-42.984-17.7l7.615-25.16s14.95 12.835 27.565 12.835c8.243 0 11.596-6.49 11.596-11.232 0-19.616-32.16-20.491-32.16-52.724 0-27.129 19.472-53.382 58.778-53.382 15.145 0 22.627 4.338 22.627 4.338" fill="#fff"/></svg>